<svg width="81" height="61" viewBox="0 0 81 61" fill="none" xmlns="http://www.w3.org/2000/svg">
<path d="M16.4877 61C16.2429 61 15.9853 60.9632 15.7234 60.894C14.7874 60.6429 14.0832 59.9721 13.7955 59.0545C13.5057 58.1326 13.7075 57.1307 14.3344 56.3733C14.5748 56.0855 14.8432 55.8063 15.103 55.538C15.2253 55.4124 15.3456 55.2869 15.4593 55.1657L16.2043 54.3694L15.1523 54.0924C14.6629 53.9625 14.1734 53.85 13.6968 53.7396C12.677 53.5038 11.7131 53.2809 10.8072 52.9238C4.78958 50.5563 1.20223 46.0746 0.145985 39.6041C0.115929 39.4245 0.0536708 39.2774 0.00429367 39.1562C0.00429367 39.1518 0 39.1475 0 39.1432V35.618C0.0837265 35.2544 0.161012 34.8865 0.234005 34.5294C0.405751 33.6985 0.566764 32.9129 0.830824 32.1642C2.85099 26.4749 6.78614 22.8133 12.5225 21.2855C13.3275 21.0713 13.8642 20.725 14.051 19.6711C15.835 9.51096 23.5228 1.8957 33.643 0.270505C34.7615 0.0908898 35.9079 0 37.0543 0C44.9418 0 52.6983 4.34539 56.8159 11.0734C56.9082 11.2249 57.0006 11.3742 57.1122 11.5517L57.7133 12.519L58.2844 11.9888C58.3531 11.9239 58.4196 11.8654 58.484 11.807C58.6279 11.6772 58.761 11.5538 58.8876 11.4283C59.2934 11.0215 59.6991 10.6103 60.1027 10.2013C60.8928 9.4006 61.7086 8.57393 62.5244 7.77756C63.0954 7.22141 63.733 6.93792 64.4179 6.93792C64.7184 6.93792 65.034 6.99202 65.356 7.09806C66.4187 7.44863 67.0391 8.18224 67.256 9.34C67.3977 10.1039 67.2002 10.8267 66.6506 11.5495C66.5432 11.6902 66.4058 11.8265 66.2598 11.9715L55.5171 22.8003C43.4562 34.9579 30.9831 47.5288 18.7247 59.9028C17.9948 60.6408 17.2627 61 16.4877 61ZM37.0264 5.64815C35.9745 5.64815 34.9225 5.74986 33.9049 5.95111C25.3519 7.6369 19.4782 14.67 19.285 23.4517C19.2464 25.2003 18.1837 26.3147 16.4426 26.4338L16.1313 26.4532C15.586 26.4879 15.0235 26.5247 14.4632 26.6242C9.85611 27.4465 6.40186 31.1362 5.66549 36.0291C5.00856 40.3897 7.46239 45.0835 11.5006 47.1891C13.5809 48.2733 15.7148 48.4139 17.34 48.4139C17.6792 48.4139 18.042 48.4074 18.4456 48.3923C18.7075 48.3923 18.9716 48.3901 19.2335 48.3858C19.4954 48.3836 19.7573 48.3793 20.0192 48.3793C20.4207 48.3793 20.7491 48.3858 21.054 48.401C21.1055 48.4031 21.157 48.4053 21.2064 48.4053C21.9041 48.4053 22.4795 48.1521 23.0183 47.6046C27.6383 42.9238 32.3506 38.178 36.9062 33.5881L42.3914 28.0611C45.8156 24.6116 49.2376 21.16 52.6661 17.7148C52.9838 17.3946 53.5184 16.8579 53.0783 15.9035C50.2531 9.76848 43.804 5.64598 37.0307 5.64598L37.0264 5.64815Z" fill="#EEE8DC"/>
<path d="M46.1698 54.0448C43.5378 54.0448 40.9079 54.0448 38.2759 54.0404C36.1033 54.0404 33.9307 54.0361 31.7581 54.0361C32.1918 53.599 32.6276 53.1618 33.0612 52.7225C34.3515 51.4241 35.6868 50.0824 36.9878 48.7472C37.2518 48.4767 37.4794 48.3793 37.8551 48.3793C43.0354 48.3901 47.5974 48.3966 51.8074 48.3966C54.8451 48.3966 57.8829 48.3945 60.9207 48.388C67.5372 48.375 73.1426 44.1508 74.8687 37.8751C76.964 30.2663 72.7776 22.5601 65.3152 20.1386C65.7575 19.7231 66.1783 19.3249 66.5883 18.9202L66.9082 18.6043C67.7669 17.756 68.6557 16.8774 69.4951 15.9728C69.6111 15.8473 69.6647 15.8321 69.6647 15.8321C69.6733 15.8321 69.7356 15.8365 69.9009 15.923C75.7832 19.0111 79.3899 23.7936 80.6243 30.1343C82.6617 40.6061 76.1997 50.8333 65.9164 53.4194C64.3964 53.8024 62.7412 53.9993 60.9915 54.0101C56.6936 54.034 52.1208 54.0448 46.1655 54.0448H46.1698Z" fill="#EEE8DC"/>
</svg>
